<svg version="1.2" xmlns="http://www.w3.org/2000/svg" viewBox="0 0 512 512" width="512" height="512">
	<title>hostdime-data-center-web-hosting-service-computer-servers-virtual-private-server-blog-533129132097d4960ad114280824cdd2</title>
	<style>
		.s0 { opacity: .22;fill: #7a7670 } 
		.s1 { opacity: .55;fill: #ec7b30 } 
		.s2 { opacity: .99;fill: #6b7b81 } 
		.s3 { opacity: 1;fill: #5a696d } 
		.s4 { opacity: 1;fill: #ec7b30 } 
	</style>
	<g id="Background">
		<path id="Path 0" fill-rule="evenodd" class="s0" d="m253 57v-1h3zm9 0l-2-1h2zm-12 367v-1l2 1z"/>
		<path id="Path 1" class="s1" d="m0 143h1v1h-1zm511 3h1v1h-1z"/>
		<path id="Path 2" class="s2" d="m258 155v-99h2l2 1 189 64 5 6v55l-3 3h-10zm-132 20l-56 10h-11l-4-3v-55l12-8 49-16 5 54zm-4 204l-58-19-9-7v-55l4-3h10l57 10-4 17zm136-54l186-30h9l3 3v55l-4 5-186 64-1 1h-3l-1 1h-3z"/>
		<path id="Path 3" class="s3" d="m253 57l3-1h2v99l-132 20-5-18-5-54zm-131 322v-57l4-17 132 20v99h-6l-2-1h-3l-1-1z"/>
		<path id="Path 4" class="s4" d="m1 143l4-5 37-11h5l1 5-1 220-6 1-40-14-1-1v-194zm464 206l-2-217 4-2h5l34 10 4 4 1 1v1l1 1v186l-1 1-6 6-33 11-6-1z"/>
		<path id="Path 5" class="s0" d="m246 422h1v1h-1zm19 0h1v1h-1zm-4 1h1v1h-1z"/>
		<path id="Path 6" class="s1" d="m510 144h1v1h-1zm1 189h1v1h-1zm-511 5h1v1h-1zm465 11h1v1h-1z"/>
		<path id="Path 7" class="s4" d="m246 191h22l5 1h6l5 1h6l5 1h5l5 1h6l5 1h6l5 1h6l5 1h6l5 1h5l6 1h5l5 1h6l5 1h6l5 1h6l5 1h5l6 1h5l5 1h6l5 1h6l5 1 10 4 1 53-4 6-5 1-6 1h-5l-5 1h-6l-5 1h-6l-5 1h-6l-5 1h-6l-5 1h-5l-6 1h-5l-5 1h-6l-5 1h-6l-5 1h-6l-5 1h-6l-5 1h-5l-6 1h-5l-5 1h-6l-5 1h-6l-5 1h-6l-5 1h-6-14l-157-14h-5l-17-2-5-1-10-5v-54l6-5h5l6-1 16-1 5-1 17-1 5-1 17-1 5-1 16-1 6-1 16-1 5-1 17-1 5-1 17-1 5-1 17-1z"/>
	</g>
</svg>