<svg version="1.1" id="Layer_1" xmlns="http://www.w3.org/2000/svg" xmlns:xlink="http://www.w3.org/1999/xlink" x="0px" y="0px" viewBox="0 0 134.4 134.4" enable-background="new 0 0 134.4 134.4" xml:space="preserve">
<path fill="#748286" d="M69.4,19.6c-0.9-0.3-2.4-0.3-3.4,0L18.3,36.1c-0.9,0.3-1.7,1.4-1.7,2.4v12.6c0,1,0.8,1.7,1.8,1.5l47.6-7.7
  c1-0.2,2.5-0.2,3.5,0l47.6,7.7c1,0.2,1.8-0.5,1.8-1.5V38.5c0-1-0.8-2-1.7-2.4L69.4,19.6z"></path>
<path fill="#F37821" d="M69.5,54.3c-1-0.1-2.6-0.1-3.5,0l-47.6,4.4c-1,0.1-1.8,1-1.8,1.9v12.6c0,1,0.8,1.9,1.8,1.9l47.6,4.4
  c1,0.1,2.6,0.1,3.5,0l47.6-4.4c1-0.1,1.8-1,1.8-1.9V60.6c0-1-0.8-1.9-1.8-1.9L69.5,54.3z"></path>
<path fill="#748286" d="M69.4,88.9c-1,0.2-2.5,0.2-3.5,0l-47.6-7.7c-1-0.2-1.8,0.5-1.8,1.5v12.6c0,1,0.8,2,1.7,2.4L66,114.3
  c0.9,0.3,2.4,0.3,3.4,0l47.7-16.5c0.9-0.3,1.7-1.4,1.7-2.4V82.8c0-1-0.8-1.7-1.8-1.5L69.4,88.9z"></path>
<path fill="#F37821" d="M1.9,42.5c0-1,0.8-2,1.7-2.4l8.2-2.8c0.9-0.3,1.7,0.2,1.7,1.2v55.9c0,1-0.8,1.5-1.7,1.2l-8.2-2.8
  c-0.9-0.3-1.7-1.4-1.7-2.4V42.5z"></path>
<path fill="#F37821" d="M133.5,43.5c0-1-0.8-2-1.7-2.4l-8.2-2.8c-0.9-0.3-1.7,0.2-1.7,1.2v54.8c0,1,0.8,1.5,1.7,1.2l8.2-2.8
  c0.9-0.3,1.7-1.4,1.7-2.4V43.5z"></path>
<linearGradient id="SVGID_1_" gradientUnits="userSpaceOnUse" x1="16.0743" y1="97.8785" x2="67.169" y2="97.8785">
  <stop offset="0" style="stop-color:#748286"></stop>
  <stop offset="1" style="stop-color:#586366"></stop>
</linearGradient>
<path display="none" fill="url(#SVGID_1_)" d="M67.2,89c-0.6,0-1.3,0-1.8-0.1l-47.6-7.7c-1-0.2-1.8,0.5-1.8,1.5v12.6
  c0,1,0.8,2,1.7,2.4l47.7,16.5c0.5,0.2,1.1,0.2,1.7,0.2V89z"></path>
<linearGradient id="SVGID_2_" gradientUnits="userSpaceOnUse" x1="16.0743" y1="66.9244" x2="67.169" y2="66.9244">
  <stop offset="0" style="stop-color:#F37821"></stop>
  <stop offset="1" style="stop-color:#CB6528"></stop>
</linearGradient>
<path display="none" fill="url(#SVGID_2_)" d="M67.2,54.2c-0.6,0-1.3,0-1.8,0.1l-47.6,4.4c-1,0.1-1.8,1-1.8,1.9v12.6
  c0,1,0.8,1.9,1.8,1.9l47.6,4.4c0.5,0,1.1,0.1,1.8,0.1V54.2z"></path>
<linearGradient id="SVGID_3_" gradientUnits="userSpaceOnUse" x1="16.0743" y1="36.002" x2="67.169" y2="36.002">
  <stop offset="0" style="stop-color:#748286"></stop>
  <stop offset="1" style="stop-color:#586366"></stop>
</linearGradient>
<path display="none" fill="url(#SVGID_3_)" d="M67.2,19.4c-0.6,0-1.2,0.1-1.7,0.2L17.8,36.1c-0.9,0.3-1.7,1.4-1.7,2.4v12.6
  c0,1,0.8,1.7,1.8,1.5L65.4,45c0.5-0.1,1.1-0.1,1.8-0.1V19.4z"></path>
</svg>