<?xml version="1.0" standalone="no"?>
<!DOCTYPE svg PUBLIC "-//W3C//DTD SVG 20010904//EN"
 "http://www.w3.org/TR/2001/REC-SVG-20010904/DTD/svg10.dtd">
<svg version="1.0" xmlns="http://www.w3.org/2000/svg"
 width="293.000000pt" height="194.000000pt" viewBox="0 0 293.000000 194.000000"
 preserveAspectRatio="xMidYMid meet">
<metadata>
Created by potrace 1.16, written by Peter Selinger 2001-2019
</metadata>
<g transform="translate(0.000000,194.000000) scale(0.100000,-0.100000)"
fill="#000000" stroke="none">
<path d="M1365 1858 c-16 -6 -32 -14 -35 -18 -3 -4 -120 -45 -260 -90 -140
-46 -259 -86 -265 -90 -5 -5 -82 -31 -170 -60 -88 -29 -166 -59 -173 -68 -9
-12 -12 -52 -10 -142 l3 -125 65 2 c36 2 128 14 205 28 77 13 266 45 421 69
l280 45 280 -45 c153 -24 342 -56 419 -69 77 -14 169 -26 205 -28 l65 -2 3
125 c2 90 -1 130 -10 142 -7 9 -85 40 -173 68 -88 29 -164 56 -170 60 -5 4
-125 45 -265 90 -140 45 -257 86 -260 90 -8 11 -71 30 -99 29 -14 0 -39 -5
-56 -11z"/>
<path d="M456 683 c-10 -10 -7 -256 3 -272 9 -14 100 -46 671 -238 140 -47
257 -90 258 -94 5 -12 69 -12 74 0 2 5 118 47 258 93 140 47 347 117 460 155
l205 69 3 142 3 142 -25 0 c-35 0 -483 -69 -526 -81 -60 -16 -359 -59 -414
-59 -50 0 -418 54 -434 64 -4 2 -113 20 -242 40 -129 20 -247 38 -261 40 -15
3 -29 2 -33 -1z"/>
</g>
</svg>
